# xmcd CD database file generated by LOLA_Freedb v0.9beta0
# 
# Track frame offsets:
#      150
#      21600
#      41085
#      60750
#      81857
#      102277
#      122940
#      143372
#      161132
#      182395
#      205407
#      224380
#      243447
#      262342
# 
# Disc length: 3750 seconds
# 
# Revision: 8 
# Processed by: cddbd v1.5.2PL0 Copyright (c) Steve Scherf et al.
# Submitted via: LOLA_Freedb v0.9beta0
# 
DISCID=cb0ea40e
DTITLE=Deborah Cox - One Wish
DYEAR=1998
DGENRE=R&B/Soul
TTITLE0=Deborah Cox - September
TTITLE1=Its' Over Now
TTITLE2=Nobody's Supposed To Be Here
TTITLE3=We Can't Be Friends
TTITLE4=Couldn't We
TTITLE5=One Wish
TTITLE6=I Won't Give Up
TTITLE7=Just When I Think I'm Over You
TTITLE8=Love Is On The Way
TTITLE9=I Never Knew
TTITLE10=One Day You Will
TTITLE11=Nobody's Supposed To Be Here (Dance Mix)
TTITLE12=Things Just Ain't The Same (Dance Mix)
TTITLE13=September (Dance Mix)
EXTD=
EXTT0=
EXTT1=
EXTT2=
EXTT3=
EXTT4=
EXTT5=
EXTT6=
EXTT7=
EXTT8=
EXTT9=
EXTT10=
EXTT11=
EXTT12=
EXTT13=
PLAYORDER=
